<svg xmlns="http://www.w3.org/2000/svg" xmlns:xlink="http://www.w3.org/1999/xlink" viewBox="0 0 259.1 61.27"><defs><style>.cls-1,.cls-7{fill:#fff;}.cls-2{fill:url(#New_Gradient_Swatch_copy_2);}.cls-3{fill:url(#New_Gradient_Swatch_copy_2-2);}.cls-4{fill:url(#New_Gradient_Swatch_copy_2-3);}.cls-5{fill:none;}.cls-5,.cls-6,.cls-7{stroke:#00354b;stroke-miterlimit:10;}.cls-6{fill:#1d6178;}.cls-8{fill:#f15a29;}</style><linearGradient id="New_Gradient_Swatch_copy_2" x1="0.59" y1="38.51" x2="47.68" y2="38.51" gradientUnits="userSpaceOnUse"><stop offset="0" stop-color="#3a8397"/><stop offset="1" stop-color="#fff"/></linearGradient><linearGradient id="New_Gradient_Swatch_copy_2-2" x1="0.54" y1="50.09" x2="47.63" y2="50.09" xlink:href="#New_Gradient_Swatch_copy_2"/><linearGradient id="New_Gradient_Swatch_copy_2-3" x1="0.59" y1="26.36" x2="47.68" y2="26.36" xlink:href="#New_Gradient_Swatch_copy_2"/></defs><g id="Layer_2" data-name="Layer 2"><g id="Layer_1-2" data-name="Layer 1"><path class="cls-1" d="M45.65,16.87,28.54,26.72a10.15,10.15,0,0,1-9.39-.08L2.5,16.52C-.06,15,0,12.47,2.63,11L19.74,1.11a10.15,10.15,0,0,1,9.39.08L45.78,11.31C48.33,12.87,48.28,15.35,45.65,16.87Z"/><path class="cls-1" d="M45.61,28.85,28.5,38.7a10.15,10.15,0,0,1-9.39-.08L2.47,28.5C-.09,27,0,24.46,2.6,23L19.71,13.1a10.15,10.15,0,0,1,9.39.07L45.74,23.3C48.3,24.85,48.24,27.34,45.61,28.85Z"/><path class="cls-1" d="M45.61,40.44,28.5,50.29a10.15,10.15,0,0,1-9.39-.07L2.47,40.09c-2.56-1.55-2.5-4,.13-5.55l17.11-9.85a10.15,10.15,0,0,1,9.39.08L45.74,34.89C48.3,36.44,48.24,38.93,45.61,40.44Z"/><path class="cls-2" d="M47.51,27.85c.12-.16.13.55.13.75l-.13,3.82c0,2.81,1,4.29-1.67,5.81L28.73,48.08A10.15,10.15,0,0,1,19.34,48L2.7,37.88C.14,36.32.82,34.84.82,32.32L.59,27.84a8.68,8.68,0,0,0,2.61,2.1l16.14,9.53c2.56,1.56,6.93,1.45,9.56-.06l16.52-9.6C47.32,28.37,46.88,28.71,47.51,27.85Z"/><path class="cls-3" d="M47.46,39.44c.12-.17.13.54.13.74L47.46,44c0,2.81,1,4.3-1.67,5.81L28.68,59.66a10.15,10.15,0,0,1-9.39-.08L2.65,49.46C.09,47.9.77,46.43.77,43.9L.54,39.42a8.86,8.86,0,0,0,2.61,2.11l16.14,9.53c2.55,1.55,6.93,1.44,9.56-.07L45.37,41.4C47.27,40,46.83,40.3,47.46,39.44Z"/><path class="cls-4" d="M47.51,15.7c.12-.16.13.54.13.75l-.13,3.82c0,2.8,1,4.29-1.67,5.8L28.73,35.92a10.15,10.15,0,0,1-9.39-.07L2.7,25.72C.14,24.17.82,22.69.82,20.17L.59,15.68A8.86,8.86,0,0,0,3.2,17.79l16.14,9.53c2.56,1.55,6.93,1.44,9.56-.07l16.52-9.59C47.32,16.22,46.88,16.56,47.51,15.7Z"/><path class="cls-5" d="M45.6,17.64,28.49,27.49a10.13,10.13,0,0,1-9.38-.08L2.46,17.29c-2.56-1.56-2.5-4,.13-5.56L19.7,1.88A10.18,10.18,0,0,1,29.09,2L45.73,12.08C48.29,13.64,48.23,16.13,45.6,17.64Z"/><path class="cls-6" d="M40.23,16.9,27.39,24.29a7.61,7.61,0,0,1-7-.06L7.87,16.64C6,15.47,6,13.61,8,12.47L20.8,5.08a7.64,7.64,0,0,1,7,.06l12.48,7.59C42.24,13.9,42.2,15.77,40.23,16.9Z"/><path class="cls-5" d="M47.62,14.69V20.4c0,2.8.62,4.16-2,5.67L28.49,35.92a10.13,10.13,0,0,1-9.38-.07L2.46,25.72C-.1,24.17.58,22.69.58,20.17v-5.8"/><path class="cls-5" d="M46.4,25.7c1.77.89,1.83,2.28-.8,3.79L28.49,39.34a10.13,10.13,0,0,1-9.38-.07L2.46,29.14C.38,27.69,0,27,1.3,25.12"/><path class="cls-5" d="M47.62,26.54v5.71c0,2.81.62,4.16-2,5.68L28.49,47.78a10.16,10.16,0,0,1-9.38-.08L2.46,37.58C-.1,36,.58,34.54.58,32V26.23"/><path class="cls-5" d="M46.4,37.59c1.77.88,1.83,2.27-.8,3.79L28.49,51.23a10.16,10.16,0,0,1-9.38-.08L2.46,41C.38,39.57,0,38.88,1.3,37"/><path class="cls-5" d="M47.62,38.42v5.71c0,2.81.62,4.17-2,5.68L28.49,59.66a10.13,10.13,0,0,1-9.38-.08L2.46,49.46C-.1,47.9.58,46.43.58,43.9V38.11"/><path class="cls-7" d="M4.42,23.42l-1-.68a.39.39,0,0,1-.17-.31v-.86a.38.38,0,0,1,.59-.32l1,.68a.37.37,0,0,1,.17.31v.86A.38.38,0,0,1,4.42,23.42Z"/><path class="cls-7" d="M4.42,35l-1-.67A.4.4,0,0,1,3.23,34v-.85a.38.38,0,0,1,.59-.32l1,.67a.37.37,0,0,1,.17.32v.85A.38.38,0,0,1,4.42,35Z"/><path class="cls-7" d="M4.42,47.15l-1-.67a.39.39,0,0,1-.17-.31v-.86A.38.38,0,0,1,3.82,45l1,.67A.37.37,0,0,1,5,46v.86A.38.38,0,0,1,4.42,47.15Z"/><line class="cls-5" x1="40.32" y1="23.2" x2="40.32" y2="26.09"/><line class="cls-5" x1="41.74" y1="22.46" x2="41.74" y2="25.35"/><line class="cls-5" x1="43.16" y1="21.75" x2="43.16" y2="24.64"/><line class="cls-5" x1="44.64" y1="21.01" x2="44.64" y2="23.9"/><line class="cls-5" x1="40.32" y1="34.73" x2="40.32" y2="37.62"/><line class="cls-5" x1="41.74" y1="33.99" x2="41.74" y2="36.88"/><line class="cls-5" x1="43.16" y1="33.29" x2="43.16" y2="36.18"/><line class="cls-5" x1="44.64" y1="32.54" x2="44.64" y2="35.44"/><line class="cls-5" x1="40.32" y1="47.2" x2="40.32" y2="50.09"/><line class="cls-5" x1="41.74" y1="46.46" x2="41.74" y2="49.35"/><line class="cls-5" x1="43.16" y1="45.75" x2="43.16" y2="48.65"/><line class="cls-5" x1="44.64" y1="45.01" x2="44.64" y2="47.9"/><path class="cls-8" d="M116.69,25.11,108.08,41.3,99.46,25.11h6.24l2.38,4.46,2.37-4.46Z"/><path class="cls-8" d="M126.43,39.42H125a4.08,4.08,0,0,1-1.6-.32,4,4,0,0,1-1.3-.89,4.05,4.05,0,0,1-1.21-2.91V20.63h5.5Z"/><path class="cls-8" d="M127.88,25.09H142a3.9,3.9,0,0,1,1.59.33,4.19,4.19,0,0,1,1.31.88,4.08,4.08,0,0,1,.88,1.31,3.94,3.94,0,0,1,.32,1.6V39.42h-5.5V29.57h-7.24v9.85h-5.51Z"/><path class="cls-8" d="M152.51,29.57v1.69h9.4a3.52,3.52,0,0,1,1.41.29,3.89,3.89,0,0,1,1.15.78,3.7,3.7,0,0,1,.78,1.16,3.36,3.36,0,0,1,.29,1.41v.42a3.94,3.94,0,0,1-.32,1.6,4.15,4.15,0,0,1-.88,1.3,4.24,4.24,0,0,1-1.32.88,4,4,0,0,1-1.6.32h-10a4.15,4.15,0,0,1-3.8-2.5,4.12,4.12,0,0,1-.32-1.6V35h12.88V33.26h-9.25a3.52,3.52,0,0,1-1.41-.29,3.66,3.66,0,0,1-1.15-.78,3.59,3.59,0,0,1-.78-1.16,3.35,3.35,0,0,1-.29-1.4v-.42a4.08,4.08,0,0,1,2.52-3.77,3.88,3.88,0,0,1,1.6-.33h10a3.88,3.88,0,0,1,1.6.33,4,4,0,0,1,2.2,2.18,3.9,3.9,0,0,1,.32,1.59v.36Z"/><path class="cls-8" d="M174.68,29.57V35h6.1v4.47h-7.5a4,4,0,0,1-1.59-.32,4.19,4.19,0,0,1-1.31-.88,4.15,4.15,0,0,1-.88-1.3,4,4,0,0,1-.33-1.6V29.57h-2.28V25.11h2.28V22.6A3.9,3.9,0,0,1,169.5,21a4.08,4.08,0,0,1,.88-1.31,4.22,4.22,0,0,1,1.31-.89,4,4,0,0,1,1.59-.32h1.4v6.62h6.1v4.46Z"/><path class="cls-8" d="M196.45,25.09a3.92,3.92,0,0,1,1.6.33,4,4,0,0,1,1.3.88,4.1,4.1,0,0,1,1.2,2.91V39.42H186.42a4,4,0,0,1-1.51-.29,4.12,4.12,0,0,1-1.25-.78,4.31,4.31,0,0,1-.89-1.18,3.91,3.91,0,0,1-.43-1.46.68.68,0,0,1,0-.19,1.28,1.28,0,0,0,0-.19,4,4,0,0,1,.34-1.58,4.35,4.35,0,0,1,.89-1.3,4.2,4.2,0,0,1,1.3-.88,4,4,0,0,1,1.59-.32h8.64V29.56H182.3v-.35a4,4,0,0,1,.33-1.6,4.25,4.25,0,0,1,.88-1.31,4.19,4.19,0,0,1,1.31-.88,3.92,3.92,0,0,1,1.6-.33Zm-1.39,8.15h-7.25v1.7h7.25Z"/><path class="cls-8" d="M201.84,25.09H216a3.9,3.9,0,0,1,1.59.33,4.31,4.31,0,0,1,1.31.88,4.08,4.08,0,0,1,.88,1.31,3.94,3.94,0,0,1,.32,1.6V39.42h-5.5V29.57h-7.24v9.85h-5.51Z"/><path class="cls-8" d="M239.5,34.94v.38a4,4,0,0,1-1.21,2.89,4,4,0,0,1-1.31.89,4,4,0,0,1-1.58.32h-10a4.12,4.12,0,0,1-1.6-.32,4.19,4.19,0,0,1-2.19-2.19,3.86,3.86,0,0,1-.32-1.59V29.21a3.94,3.94,0,0,1,.32-1.6,4.08,4.08,0,0,1,.88-1.31,4.31,4.31,0,0,1,1.31-.88,4,4,0,0,1,1.6-.33h10a3.86,3.86,0,0,1,1.58.33,4.08,4.08,0,0,1,1.31.88,4,4,0,0,1,.89,1.31,4.12,4.12,0,0,1,.32,1.6v.35H226.75v5.38Z"/><path class="cls-8" d="M246.36,33.24v1.7H259.1v.38a3.86,3.86,0,0,1-.32,1.59,4.15,4.15,0,0,1-.88,1.3,4.05,4.05,0,0,1-2.9,1.21H245a4.05,4.05,0,0,1-2.91-1.21,4.33,4.33,0,0,1-.88-1.3,3.87,3.87,0,0,1-.33-1.59V29.21a4,4,0,0,1,.33-1.6,4.25,4.25,0,0,1,.88-1.31,4.19,4.19,0,0,1,1.31-.88,3.92,3.92,0,0,1,1.6-.33h10a3.9,3.9,0,0,1,1.59.33,4.19,4.19,0,0,1,1.31.88,4.08,4.08,0,0,1,.88,1.31,3.94,3.94,0,0,1,.32,1.6v4Zm0-2h7.24V29.56h-7.24Z"/><path class="cls-8" d="M80.27,18.49V35.32a3.87,3.87,0,0,1-.33,1.59,4.15,4.15,0,0,1-.88,1.3,4.05,4.05,0,0,1-2.91,1.21h-10a4.08,4.08,0,0,1-1.6-.32,4,4,0,0,1-1.3-.89,4.18,4.18,0,0,1-.89-1.3A4,4,0,0,1,62,35.32V29.21a4.05,4.05,0,0,1,1.21-2.9,4.18,4.18,0,0,1,1.3-.89,4.08,4.08,0,0,1,1.6-.32h8.64V18.49ZM74.76,29.57H67.52V35h7.24Z"/><path class="cls-8" d="M86.68,33.24v1.7H99.42v.38a3.86,3.86,0,0,1-.32,1.59,4.19,4.19,0,0,1-2.19,2.19,4.07,4.07,0,0,1-1.59.32h-10a4.08,4.08,0,0,1-1.6-.32,4,4,0,0,1-1.31-.89,4.33,4.33,0,0,1-.88-1.3,3.87,3.87,0,0,1-.33-1.59V29.21a4,4,0,0,1,.33-1.6,4.25,4.25,0,0,1,.88-1.31,4.08,4.08,0,0,1,1.31-.88,3.92,3.92,0,0,1,1.6-.33h10a3.9,3.9,0,0,1,1.59.33,4.31,4.31,0,0,1,1.31.88,4.08,4.08,0,0,1,.88,1.31,3.94,3.94,0,0,1,.32,1.6v4Zm0-2h7.24V29.56H86.68Z"/></g></g></svg>